<svg width="128" height="90" viewBox="0 0 128 90" fill="none" xmlns="http://www.w3.org/2000/svg" role="img" aria-labelledby="title">
  <title id="title">Salesforce cloud logo</title>
  <path d="M53.3 18.1C57.2 9 66.4 2.7 77 2.7c13.4 0 24.5 10.1 25.7 23.1 10.8 2 19 11.5 19 22.8 0 12.8-10.4 23.2-23.2 23.2H37.1C20.9 71.8 7.8 58.7 7.8 42.5S20.9 13.2 37.1 13.2c5.9 0 11.5 1.8 16.2 4.9Z" fill="#00A1E0"/>
  <path d="M42.2 56.2c-5 0-9.4-1.1-12.8-3.1l2.4-6.6c3 1.8 6.8 2.9 10.7 2.9 3.2 0 5.1-1.1 5.1-3 0-1.7-1.5-2.7-6.2-3.9-7-1.8-11.4-4.7-11.4-10.5 0-6.3 5.3-10.6 13.6-10.6 4.6 0 8 0.8 10.8 2.1l-2.2 6.7c-1.7-.8-4.7-2-8.8-2-3 0-4.5 1.2-4.5 2.7 0 1.9 2 2.6 7 4 7.3 2 10.7 5 10.7 10.6 0 6.1-4.7 10.7-14.4 10.7Zm34.5 0c-9.9 0-16.4-6.4-16.4-16.7 0-10.9 7.4-18.1 17.5-18.1 4.7 0 8.3 1 10 1.8L86 30c-1.8-.8-4.2-1.5-7.8-1.5-5.2 0-9.1 3.5-9.1 10.5 0 6.3 3.3 10.3 9.2 10.3 2.8 0 5.8-.6 7.6-1.4l1.3 6.6c-1.6.8-5.4 1.7-10.5 1.7Z" fill="white"/>
</svg>
